Coordinates
version=1
nRows=17
nColumns=24
inDegrees=yes

Units are S.I. units (second, meters, Newtons, ...)
Angles are in degrees.

endheader
time	pelvis_tilt	pelvis_list	pelvis_rotation	pelvis_tx	pelvis_ty	pelvis_tz	hip_flexion_r	hip_adduction_r	hip_rotation_r	knee_angle_r	ankle_angle_r	subtalar_angle_r	mtp_angle_r	hip_flexion_l	hip_adduction_l	hip_rotation_l	knee_angle_l	ankle_angle_l	subtalar_angle_l	mtp_angle_l	lumbar_extension	lumbar_bending	lumbar_rotation
      4.80000000	     -9.53994727	     -8.44825839	      3.82348275	     -1.33421069	     -0.02511428	      0.44439771	     22.24222094	     10.46934037	     -6.01240286	    -18.15964599	     -4.97759141	     -9.82850149	      1.98897546	     20.12153387	     -9.28363198	      2.16525362	    -63.61989698	    -24.71715131	     -5.89234878	     23.79237138	      5.86002268	      8.55564229	     -9.26537120
      4.80500000	     -9.43332900	     -8.20708734	      3.70332699	     -1.32911421	     -0.02430327	      0.44513701	     21.65416338	     10.40821512	     -5.60350753	    -18.03272799	     -4.77185624	    -10.01272580	      1.88857171	     20.76699644	     -9.01756588	      2.08382845	    -64.22308214	    -24.34673965	     -7.15860758	     23.13558387	      5.65587528	      8.27248376	     -8.91559806
      4.81000000	     -9.34192784	     -7.93346177	      3.56090616	     -1.32403189	     -0.02346959	      0.44589789	     21.07844155	     10.31530085	     -5.18432839	    -17.90350138	     -4.58385110	    -10.19619292	      1.78353320	     21.40047569	     -8.71990877	      1.98482303	    -64.71737417	    -23.88845842	     -8.18342445	     22.61872954	      5.46714258	      7.95499530	     -8.54286582
      4.81500000	     -9.26742135	     -7.62852850	      3.40563399	     -1.31896967	     -0.02261826	      0.44665459	     20.51676035	     10.18579867	     -4.75850359	    -17.76849844	     -4.40610916	    -10.37238017	      1.67788754	     22.02762081	     -8.38751081	      1.87601220	    -65.10414947	    -23.34802750	     -8.97003061	     22.25495804	      5.29846449	      7.60692512	     -8.16439057
      4.82000000	     -9.22336075	     -7.34377583	      3.33258287	     -1.31389139	     -0.02177855	      0.44726360	     19.96433760	     10.03280589	     -4.39147637	    -17.57705636	     -4.21338324	    -10.47766373	      1.62461602	     22.69305412	     -8.02566563	      1.89212312	    -65.39041300	    -22.73015953	     -9.49040409	     22.19203331	      5.19073364	      7.27512789	     -7.93760075
      4.82500000	     -9.17367414	     -6.93179209	      3.04231818	     -1.30890794	     -0.02088510	      0.44816587	     19.44112849	      9.82461070	     -3.86682793	    -17.48143343	     -4.04905368	    -10.66665891	      1.48399971	     23.26731690	     -7.63952844	      1.59300186	    -65.55854674	    -22.09162524	     -9.93129138	     21.95238642	      5.02280091	      6.82899018	     -7.38695472
      4.83000000	     -9.15258705	     -6.53620633	      2.86975496	     -1.30391569	     -0.01999261	      0.44888520	     18.92529716	      9.57563411	     -3.43848516	    -17.32075879	     -3.88201080	    -10.78639170	      1.38968570	     23.88274363	     -7.19887044	      1.46316014	    -65.62776613	    -21.38072194	    -10.12611126	     21.92957973	      4.92113122	      6.38852290	     -7.03167176
      4.83500000	     -9.14774799	     -6.11464605	      2.66281989	     -1.29895447	     -0.01911120	      0.44963278	     18.42913269	      9.29994645	     -2.99290817	    -17.16202862	     -3.69769689	    -10.87443513	      1.31512558	     24.48895944	     -6.74728016	      1.28989004	    -65.59769141	    -20.62354697	    -10.14784609	     22.00803702	      4.83299656	      5.92588245	     -6.64746303
      4.84000000	     -9.15600669	     -5.68584956	      2.43605116	     -1.29399734	     -0.01823529	      0.45038604	     17.93726764	      9.01153874	     -2.53734202	    -16.97983544	     -3.50990190	    -10.92006152	      1.25218737	     25.08555058	     -6.29830585	      1.09768646	    -65.47200013	    -19.82110821	    -10.00319019	     22.16219042	      4.76612283	      5.46117028	     -6.24932119
      4.84500000	     -9.17441483	     -5.25180774	      2.22313243	     -1.28908575	     -0.01738181	      0.45109068	     17.46260952	      8.69930513	     -2.13060287	    -16.79337028	     -3.32391224	    -10.93828499	      1.21279205	     25.68183747	     -5.83509060	      0.91728703	    -65.25893021	    -19.00783454	     -9.76655008	     22.36590486	      4.71151487	      4.99068604	     -5.87909724
      4.85000000	     -9.19837367	     -4.82511285	      1.99666958	     -1.28415931	     -0.01656095	      0.45180840	     16.97858971	      8.38993770	     -1.71339306	    -16.57204111	     -3.11758213	    -10.91459409	      1.19449812	     26.26656855	     -5.39196515	      0.72765371	    -64.96794724	    -18.18166932	     -9.41224241	     22.60500898	      4.67625817	      4.53159053	     -5.50530761
      4.85500000	     -9.22346608	     -4.41718638	      1.77138073	     -1.27925739	     -0.01576763	      0.45245687	     16.49714981	      8.08413958	     -1.33569123	    -16.33812245	     -2.91908094	    -10.85763704	      1.19237733	     26.83717990	     -4.96774990	      0.53871530	    -64.59525606	    -17.35756164	     -9.02253679	     22.84782082	      4.64288717	      4.10223050	     -5.13730922
      4.86000000	     -9.25031630	     -4.00818677	      1.54721154	     -1.27437112	     -0.01501280	      0.45308990	     16.02640163	      7.76586615	     -1.01333872	    -16.10701430	     -2.72992519	    -10.78649005	      1.20909229	     27.39146065	     -4.54558768	      0.34587650	    -64.14120682	    -16.56463926	     -8.64793112	     23.08202515	      4.61721532	      3.67437061	     -4.78343332
      4.86500000	     -9.27263735	     -3.62901700	      1.32050153	     -1.26945294	     -0.01430563	      0.45370212	     15.53434146	      7.47123516	     -0.68854850	    -15.83980238	     -2.52909174	    -10.68744129	      1.23523312	     27.92738275	     -4.16401753	      0.15451956	    -63.62349407	    -15.80735820	     -8.26424368	     23.29799979	      4.59871629	      3.27936135	     -4.43443932
      4.87000000	     -9.27695584	     -3.29413725	      1.07609235	     -1.26450365	     -0.01365390	      0.45429498	     15.00683457	      7.21937111	     -0.33817045	    -15.54044231	     -2.31075425	    -10.54911098	      1.26657544	     28.43223534	     -3.84601530	     -0.04166696	    -63.05622766	    -15.07227892	     -7.86855374	     23.48190374	      4.56963556	      2.94335782	     -4.06410788
      4.87500000	     -9.28477727	     -2.96498810	      0.84365809	     -1.25954742	     -0.01305357	      0.45484863	     14.49536111	      6.96055230	     -0.06713801	    -15.25152134	     -2.11800133	    -10.43265805	      1.29072622	     28.92212817	     -3.53734855	     -0.24611953	    -62.41511429	    -14.39735901	     -7.57650582	     23.60946800	      4.55031530	      2.61450257	     -3.73577834
      4.88000000	     -9.28373091	     -2.67090333	      0.60595112	     -1.25456486	     -0.01251461	      0.45538729	     13.95958197	      6.73341129	      0.22361153	    -14.93271436	     -1.91396998	    -10.29768338	      1.31757653	     29.39060666	     -3.27430067	     -0.44058710	    -61.72440085	    -13.78486839	     -7.33331384	     23.68892808	      4.53169958	      2.32676800	     -3.40706331
